<svg width="46" height="55" viewBox="0 0 46 55" fill="none" xmlns="http://www.w3.org/2000/svg">
<g id="g1888">
<g id="g1894">
<path id="path1896" d="M9.51694 36.0185H8.84204C8.23627 36.0185 7.64465 36.0638 7.07284 36.1485L3.53442 39.512V51.323L7.07284 54.0938H22.9957L20.9534 46.5597L9.51694 36.0185Z" fill="#A0A0A0"/>
</g>
<g id="g1898">
<path id="path1900" d="M38.919 36.1485C38.347 36.0638 37.7555 36.0185 37.1497 36.0185H36.4749L25.9833 45.2986L22.9961 54.0938H38.919L42.4574 51.8852V39.9136L38.919 36.1485Z" fill="#A0A0A0"/>
</g>
<g id="g1902">
<path id="path1904" d="M22.9002 35.9465H9.50586L21.3275 53.3807C21.6263 53.8178 22.234 54.0938 22.9002 54.0938C23.5664 54.0938 24.1742 53.8178 24.4729 53.3807L36.2946 35.9465H22.9002Z" fill="#DFE7F4"/>
</g>
<g id="g1910">
<path id="path1912" d="M33.6147 11.1327H22.9994H10.615V23.6351C10.615 30.4642 16.1703 36.0195 22.9994 36.0195C29.8286 36.0195 35.3839 30.4642 35.3839 23.6351V16.4403C35.3839 15.4494 34.6056 11.1327 33.6147 11.1327Z" fill="#FFD5CC"/>
</g>
<g id="g1918">
<path id="path1920" d="M0 42.4595V52.8106C0 53.5198 0.791307 54.0938 1.76921 54.0938H7.07683V36.1734C3.0441 36.7695 0 39.3613 0 42.4595Z" fill="#DFE7F4"/>
</g>
<g id="g1922">
<path id="path1924" d="M38.9231 36.1734V54.0938H44.2307C45.2086 54.0938 45.9999 53.5198 45.9999 52.8106V42.4595C45.9999 39.3613 42.9558 36.7695 38.9231 36.1734Z" fill="#DFE7F4"/>
</g>
<g id="g1926">
<path id="path1928" d="M26.5416 4.05305H23.0032H19.4648C18.4739 4.05305 17.6956 3.27448 17.6956 2.28384C17.6956 1.29297 16.9172 0.514636 15.9264 0.514636H14.1572C10.2649 0.514636 7.08032 3.69909 7.08032 7.59146C7.08032 11.5933 10.3702 14.6683 14.1572 14.6683H23.0032H33.6184C34.6093 14.6683 35.3876 15.4466 35.3876 16.4375V12.8991C35.3876 8.02256 31.4394 4.05305 26.5416 4.05305Z" fill="#FFA64D"/>
</g>
<g id="g1930">
<path id="path1932" d="M35.3805 16.4375V12.8991C35.3805 8.02256 31.4323 4.05305 26.5345 4.05305H22.9961V14.6683H33.6113C34.6022 14.6683 35.3805 15.4466 35.3805 16.4375Z" fill="#FF7733"/>
</g>
</g>
</svg>
